<svg xmlns="http://www.w3.org/2000/svg" viewBox="0 0 48 48"><path fill-rule="evenodd" fill-opacity=".01" fill="#fff" d="M0 0h48v48H0z"/><g transform="translate(5 8)" fill="none" stroke="#333" stroke-linejoin="round" stroke-width="4" data-follow-stroke="#333"><path stroke-linecap="round" d="M2 0h34a2 2 0 0 1 2 2v28a2 2 0 0 1-2 2H2a2 2 0 0 1-2-2V2a2 2 0 0 1 2-2Z"/><circle r="1.5" cy="8.5" cx="9.5" stroke-linecap="round"/><path d="m10 16 5 4 6-7 17 13v4a2 2 0 0 1-2 2H2a2 2 0 0 1-2-2v-4l10-10Z"/></g></svg>